<svg width="162" height="20" viewBox="0 0 162 20" fill="none" xmlns="http://www.w3.org/2000/svg">
<path d="M23.1262 0.64V19H18.9142V5.608L13.1092 19H10.2202L4.41519 5.608V19H0.392191V0.64H6.22419L11.7592 13.384L17.2672 0.64H23.1262ZM40.5606 19L38.9136 15.112H30.6246L28.9776 19H24.5766L32.7036 0.64H37.0236L45.1506 19H40.5606ZM34.7826 4.933L32.1096 11.602H37.4286L34.7826 4.933ZM60.0291 0.64V4.258H53.2251V19H49.0131V4.258H42.2091V0.64H60.0291ZM70.9303 19.324C67.6183 19.324 65.0263 18.487 63.1543 16.813C61.3003 15.139 60.3733 12.835 60.3733 9.901C60.3733 6.949 61.3003 4.618 63.1543 2.908C65.0263 1.18 67.5463 0.315999 70.7143 0.315999C73.2703 0.315999 75.5113 0.936999 77.4373 2.179L76.1953 5.581C74.4853 4.555 72.7663 4.042 71.0383 4.042C69.0763 4.042 67.5193 4.564 66.3673 5.608C65.2333 6.652 64.6663 8.065 64.6663 9.847C64.6663 11.647 65.2423 13.06 66.3943 14.086C67.5643 15.094 69.1663 15.598 71.2003 15.598C73.1263 15.598 74.9533 15.067 76.6813 14.005L78.0583 17.407C76.2403 18.685 73.8643 19.324 70.9303 19.324ZM93.2135 0.64H97.4255V19H93.2135V11.575H83.8175V19H79.6055V0.64H83.8175V7.957H93.2135V0.64ZM115.431 0.64C118.383 0.64 120.705 1.459 122.397 3.097C124.107 4.735 124.962 6.976 124.962 9.82C124.962 12.664 124.107 14.905 122.397 16.543C120.705 18.181 118.383 19 115.431 19H106.872V0.64H115.431ZM114.999 15.382C116.817 15.382 118.212 14.905 119.184 13.951C120.174 12.979 120.669 11.602 120.669 9.82C120.669 8.038 120.174 6.67 119.184 5.716C118.212 4.744 116.817 4.258 114.999 4.258H111.084V15.382H114.999ZM140.344 19L138.697 15.112H130.408L128.761 19H124.36L132.487 0.64H136.807L144.934 19H140.344ZM134.566 4.933L131.893 11.602H137.212L134.566 4.933ZM161.194 0.64L153.472 10.765V19H149.233V10.765L141.511 0.64H146.776L151.474 6.877L156.145 0.64H161.194Z" fill="#0043FF"/>
</svg>
